<svg xmlns="http://www.w3.org/2000/svg" viewBox="0 0 152 152">
  <rect width="152" height="152" rx="16" fill="#1e1816"/>
  <g transform="translate(10 3)" fill="#c8a87a">
    <path d="M38.3 100.46a1.3 1.3 0 001.83 0l6.45-6.42 5.1 5.1a1.3 1.3 0 101.83-1.83l-5.1-5.1 17.32-17.35 17.32 17.32-5.1 5.1a1.294 1.294 0 101.83 1.83l5.1-5.1 6.45 6.45a1.294 1.294 0 001.83-1.83l-6.43-6.45 5.1-5.1A1.294 1.294 0 0090 85.25l-5.1 5.1-17.34-17.31 17.31-17.31 5.1 5.1A1.294 1.294 0 1091.8 59l-5.1-5.1 6.45-6.45a1.294 1.294 0 00-1.83-1.83l-6.44 6.42-5.1-5.1a1.294 1.294 0 00-1.83 1.83l5.1 5.1L65.73 71.2 48.42 53.89l5.1-5.1a1.3 1.3 0 00-1.79-1.83l-5.14 5.08-6.46-6.44a1.3 1.3 0 00-1.83 1.83l6.43 6.46-5.1 5.1a1.3 1.3 0 001.83 1.83l5.1-5.1L63.9 73.04 46.58 90.35l-5.1-5.1a1.3 1.3 0 10-1.83 1.79l5.1 5.1-6.45 6.45a1.3 1.3 0 000 1.87z"/>
    <path d="M64.82.37L0 65.18h3.66L65.73 3.11l62.07 62.07h3.66L66.65.37a1.33 1.33 0 00-1.83 0zm.91 142.58L3.66 80.88H0l64.82 64.82a1.3 1.3 0 001.83 0l64.81-64.82h-3.66z"/>
    <path d="M64.81 102.04l-13.13 13.3a1.294 1.294 0 101.84 1.82l12.21-12.33 12.21 12.33a1.3 1.3 0 001.84-1.82l-13.13-13.3a1.33 1.33 0 00-1.84 0zm.92-57.68a1.3 1.3 0 00.92-.38l13.13-13.25a1.3 1.3 0 10-1.84-1.82L65.73 41.23 53.52 28.9a1.294 1.294 0 00-1.84 1.82l13.13 13.25a1.29 1.29 0 00.92.39zM21.59 87.04a1.29 1.29 0 001.83 0l13.25-13.13a1.29 1.29 0 000-1.84L23.42 58.98a1.294 1.294 0 10-1.82 1.84l12.33 12.22-12.33 12.2a1.29 1.29 0 00-.01 1.8zm88.28-28.05a1.3 1.3 0 00-1.83 0L94.78 72.12a1.3 1.3 0 000 1.84l13.26 13.08a1.3 1.3 0 001.82-1.84L97.53 73.04l12.33-12.21a1.3 1.3 0 00.01-1.84z"/>
  </g>
</svg>
